<svg xmlns="http://www.w3.org/2000/svg" viewBox="0 0 71.45 71.21"><defs><style>.cls-1{fill:none;stroke:#c2a53b;stroke-linecap:round;stroke-miterlimit:10;stroke-width:5px;}</style></defs><g id="Layer_2" data-name="Layer 2"><g id="Layer_1-2" data-name="Layer 1"><path class="cls-1" d="M9.77,8.89,13.26,5.4a9.92,9.92,0,0,1,14,0l.45.45a.76.76,0,0,1,0,1.08L6.81,27.85a.76.76,0,0,1-1.08,0l-.24-.24a10.21,10.21,0,0,1,0-14.44Z"/><path class="cls-1" d="M20.38,19.5,23.87,16a9.92,9.92,0,0,1,14,0l.45.45a.76.76,0,0,1,0,1.08L17.42,38.46a.76.76,0,0,1-1.08,0l-.24-.24a10.22,10.22,0,0,1,0-14.44Z"/><path class="cls-1" d="M31.38,30.5,34.87,27a9.92,9.92,0,0,1,14,0l.45.45a.76.76,0,0,1,0,1.08L28.66,49.22a1.1,1.1,0,0,1-1.56,0h0a10.22,10.22,0,0,1,0-14.44Z"/><path class="cls-1" d="M42.3,41.05l3.48-3.49a9.93,9.93,0,0,1,14,0l.44.45a.76.76,0,0,1,0,1.08L39.34,60a.77.77,0,0,1-1.09,0L38,59.77a10.21,10.21,0,0,1,0-14.44Z"/><line class="cls-1" x1="60.8" y1="38.55" x2="68.95" y2="46.71"/><line class="cls-1" x1="38.8" y1="60.55" x2="46.95" y2="68.71"/><path class="cls-1" d="M61.77,61.89c0-12.06-8.82-12.16-11.26-12a.75.75,0,0,0-.7.7c-.2,2.44-.1,11.26,12,11.26"/><line class="cls-1" x1="3.77" y1="2.89" x2="47.3" y2="46.43"/></g></g></svg>